<?xml version="1.0" encoding="UTF-8" standalone="no"?>
<!-- Created with Inkscape (http://www.inkscape.org/) -->

<svg
   width="512"
   height="512"
   viewBox="0 0 512 512"
   version="1.1"
   id="svg1"
   xml:space="preserve"
   xmlns="http://www.w3.org/2000/svg"
   xmlns:svg="http://www.w3.org/2000/svg"><defs
     id="defs1" /><rect
     style="display:inline;opacity:1;fill:#ffffff;fill-opacity:1;stroke-width:1.704;stroke-dasharray:none"
     id="rect1"
     width="512"
     height="512"
     x="-3.6184895e-07"
     y="0" /><path
     style="display:inline;fill:#000000;fill-opacity:1;stroke-width:1.95313"
     d="M -250,250.00001 V -250 H 250.00004 750 V 250.00001 750 H 250.00003 -250 Z m 478.51565,187.74413 c 0,-6.85526 -0.55494,-7.67928 -5.88893,-8.74608 l -5.88886,-1.17774 11.42146,-11.6002 c 11.51161,-11.69178 24.18306,-32.90254 26.66694,-44.63808 0.73891,-3.49121 2.08277,-6.34765 2.9863,-6.34765 0.90349,0 2.24725,2.85644 2.98624,6.34765 2.48384,11.73554 15.15529,32.9463 26.6669,44.63808 l 11.42148,11.6002 -5.88888,1.17774 c -5.33406,1.0668 -5.88889,1.89082 -5.88889,8.74608 v 7.56835 h 74.21875 74.21873 v -7.56835 c 0,-6.85526 -0.5549,-7.67928 -5.88891,-8.74608 l -5.88888,-1.17774 11.4215,-11.6002 c 13.30429,-13.51249 23.92983,-32.72968 28.6126,-51.74824 3.50763,-14.2459 2.73327,-16.71486 -5.26443,-16.78576 -3.13456,-0.0273 -3.41329,-5.76289 -3.90629,-80.38045 l -0.53091,-80.35078 5.37111,-1.87169 c 6.7766,-2.36132 6.7283,-4.83241 -0.37434,-19.14783 -13.90091,-28.01739 -35.47609,-49.62795 -64.00101,-64.10568 -7.15358,-3.630666 -11.54518,-4.173436 -33.76917,-4.173436 -28.25121,0 -30.96735,0.809767 -52.73442,15.721286 -19.34278,13.25079 -39.08788,36.92246 -46.75754,56.05606 -1.39947,3.49121 -3.21012,6.34767 -4.02364,6.34767 -0.81362,0 -2.62425,-2.85646 -4.02372,-6.34767 C 246.1192,150.3 226.37401,126.62833 207.03127,113.37754 185.2642,98.466021 182.54806,97.656254 154.29687,97.656254 c -22.22402,0 -26.61561,0.54277 -33.76922,4.173436 -28.524848,14.47773 -50.100091,36.08829 -64.000974,64.10568 -7.102562,14.31542 -7.150917,16.78651 -0.374292,19.14783 l 5.371069,1.87169 -0.530877,80.35078 c -0.493056,74.61756 -0.771755,80.35274 -3.906251,80.38045 -7.997779,0.0703 -8.772108,2.53986 -5.26447,16.78576 4.682712,19.01856 15.308222,38.23575 28.612603,51.74824 l 11.421458,11.6002 -5.888848,1.17774 c -5.334012,1.0668 -5.888936,1.89082 -5.888936,8.74608 v 7.56835 h 74.218738 74.21878 z m -79.79263,-36.86521 c -4.81452,-13.84591 -17.92414,-35.28302 -26.48508,-43.3092 l -5.05042,-4.73495 V 316.06585 279.2969 h 37.10935 37.10939 v 36.76895 36.76893 l -5.05047,4.73495 c -8.56093,8.02618 -21.6705,29.46329 -26.48505,43.3092 -2.52138,7.25097 -5.02963,13.18357 -5.57387,13.18357 -0.54426,0 -3.05247,-5.9326 -5.57385,-13.18357 z m 207.03125,0 c -4.81455,-13.84591 -17.92414,-35.28302 -26.48502,-43.3092 l -5.05048,-4.73495 V 316.06585 279.2969 h 37.10939 37.10937 v 36.76895 36.76893 l -5.05049,4.73495 c -8.56092,8.02618 -21.67051,29.46329 -26.48509,43.3092 -2.52134,7.25097 -5.02957,13.18357 -5.57379,13.18357 -0.54425,0 -3.05251,-5.9326 -5.57389,-13.18357 z M 248.04692,268.5547 c 0,-43.50585 -0.0665,-79.76074 -0.14727,-80.56642 -0.27357,-2.72382 10.81318,-4.70349 15.77216,-2.81621 l 4.88281,1.8584 -0.5309,80.31289 -0.53089,80.31291 h -9.72297 -9.72299 z m -121.69075,-19.99475 -9.38605,-0.73593 0.597,-40.416 c 0.56348,-38.14943 0.85886,-40.92813 5.26728,-49.55216 6.38082,-12.4826 19.90564,-29.33534 26.24059,-32.69765 7.10439,-3.77049 13.1444,-0.43477 23.83986,13.16641 16.87882,21.46425 17.43983,23.59863 18.1103,68.90254 l 0.59544,40.23496 -13.29075,1.25507 c -13.3977,1.26525 -34.65329,1.20078 -51.97367,-0.1582 z m 207.03124,0 -9.38605,-0.73593 0.59699,-40.416 c 0.56347,-38.14943 0.85885,-40.92813 5.26727,-49.55216 6.3808,-12.4826 19.90566,-29.33534 26.24061,-32.69765 7.10439,-3.77049 13.14437,-0.43477 23.83989,13.16641 16.87882,21.46425 17.43981,23.59863 18.11027,68.90254 l 0.59545,40.23496 -13.29073,1.25507 c -13.3977,1.26525 -34.65332,1.20078 -51.9737,-0.1582 z"
     id="path2" /></svg>
